<svg width="112" height="67" viewBox="0 0 112 67" fill="none" xmlns="http://www.w3.org/2000/svg">
<path d="M2.565 54L3.195 17.55H11.835L15.84 38.745L20.16 17.55H28.485L29.115 54H23.4L22.725 29.745L18.495 54H13.41L8.91 29.565L8.37 54H2.565ZM30.3796 54L37.2646 17.55H46.4446L53.2396 54H45.8146L44.5996 46.305H39.2446L37.9846 54H30.3796ZM39.9646 41.49H43.8346L41.8996 27.27L39.9646 41.49ZM63.9932 54.54C61.7132 54.54 59.8082 54.135 58.2782 53.325C56.7482 52.515 55.5932 51.27 54.8132 49.59C54.0332 47.88 53.5982 45.675 53.5082 42.975L60.3932 41.94C60.4232 43.5 60.5582 44.76 60.7982 45.72C61.0682 46.68 61.4282 47.37 61.8782 47.79C62.3582 48.21 62.9282 48.42 63.5882 48.42C64.4282 48.42 64.9682 48.135 65.2082 47.565C65.4782 46.995 65.6132 46.395 65.6132 45.765C65.6132 44.265 65.2532 43.005 64.5332 41.985C63.8132 40.935 62.8382 39.885 61.6082 38.835L58.4582 36.09C57.0782 34.92 55.9082 33.6 54.9482 32.13C54.0182 30.63 53.5532 28.785 53.5532 26.595C53.5532 23.505 54.4682 21.15 56.2982 19.53C58.1282 17.88 60.6182 17.055 63.7682 17.055C65.7182 17.055 67.2782 17.385 68.4482 18.045C69.6482 18.705 70.5482 19.575 71.1482 20.655C71.7782 21.705 72.1982 22.83 72.4082 24.03C72.6482 25.2 72.7832 26.325 72.8132 27.405L65.8832 28.26C65.8532 27.18 65.7782 26.25 65.6582 25.47C65.5682 24.66 65.3582 24.045 65.0282 23.625C64.6982 23.175 64.1882 22.95 63.4982 22.95C62.7482 22.95 62.1932 23.265 61.8332 23.895C61.5032 24.525 61.3382 25.155 61.3382 25.785C61.3382 27.135 61.6532 28.245 62.2832 29.115C62.9432 29.955 63.7982 30.84 64.8482 31.77L67.8632 34.425C69.4532 35.775 70.7882 37.305 71.8682 39.015C72.9782 40.725 73.5332 42.84 73.5332 45.36C73.5332 47.07 73.1432 48.63 72.3632 50.04C71.5832 51.42 70.4732 52.515 69.0332 53.325C67.6232 54.135 65.9432 54.54 63.9932 54.54ZM73.0768 54L79.9618 17.55H89.1418L95.9368 54H88.5118L87.2968 46.305H81.9418L80.6818 54H73.0768ZM82.6618 41.49H86.5318L84.5968 27.27L82.6618 41.49Z" fill="#12261C"/>
<path d="M104.69 30.21C103.63 30.21 102.72 30.03 101.96 29.67C101.21 29.3 100.595 28.81 100.115 28.2C99.635 27.59 99.28 26.915 99.05 26.175C98.83 25.435 98.72 24.69 98.72 23.94C98.72 23.18 98.83 22.43 99.05 21.69C99.28 20.95 99.635 20.28 100.115 19.68C100.595 19.07 101.21 18.585 101.96 18.225C102.72 17.855 103.63 17.67 104.69 17.67C105.75 17.67 106.655 17.855 107.405 18.225C108.165 18.585 108.78 19.07 109.25 19.68C109.73 20.28 110.08 20.95 110.3 21.69C110.53 22.43 110.645 23.18 110.645 23.94C110.645 24.69 110.53 25.44 110.3 26.19C110.08 26.93 109.73 27.605 109.25 28.215C108.78 28.815 108.165 29.3 107.405 29.67C106.655 30.03 105.75 30.21 104.69 30.21ZM104.675 29.415C105.555 29.415 106.31 29.26 106.94 28.95C107.58 28.64 108.105 28.225 108.515 27.705C108.925 27.175 109.23 26.585 109.43 25.935C109.63 25.285 109.73 24.62 109.73 23.94C109.73 23.25 109.63 22.58 109.43 21.93C109.23 21.28 108.925 20.695 108.515 20.175C108.105 19.655 107.58 19.245 106.94 18.945C106.31 18.635 105.555 18.48 104.675 18.48C103.795 18.48 103.035 18.635 102.395 18.945C101.755 19.245 101.225 19.655 100.805 20.175C100.395 20.695 100.09 21.28 99.89 21.93C99.7 22.58 99.605 23.25 99.605 23.94C99.605 24.62 99.7 25.285 99.89 25.935C100.09 26.585 100.395 27.175 100.805 27.705C101.225 28.225 101.755 28.64 102.395 28.95C103.035 29.26 103.795 29.415 104.675 29.415ZM102.155 27.705V20.1H104.645C105.225 20.1 105.715 20.165 106.115 20.295C106.525 20.415 106.84 20.625 107.06 20.925C107.28 21.225 107.39 21.64 107.39 22.17C107.39 22.64 107.315 23.025 107.165 23.325C107.015 23.615 106.73 23.86 106.31 24.06L107.63 27.705H105.56L104.54 24.435H104.12V27.705H102.155ZM104.12 23.46H104.45C104.88 23.46 105.17 23.355 105.32 23.145C105.47 22.925 105.545 22.645 105.545 22.305C105.545 21.985 105.475 21.73 105.335 21.54C105.195 21.35 104.955 21.255 104.615 21.255H104.12V23.46Z" fill="#12261C"/>
</svg>
